<?xml version="1.0" ?><svg width="480.34px" height="480.34px" viewBox="-38.84 0 480.34 480.34" xmlns="http://www.w3.org/2000/svg"><defs><style>.cls-1{fill:#173156;}</style></defs><title/><g data-name="Capa 2" id="Capa_2"><g id="Outline"><g id="Cupcake"><path class="cls-1" d="M402.65,242.62a55.07,55.07,0,0,0-55.07-55.07h-6A55.05,55.05,0,0,0,301.84,94.4H297c-2.17-13-9.55-22.37-22-28.07-13.6-6.22-31.9-7-46.33-7A31.26,31.26,0,0,1,207.78,52c-4.49-4-7.16-9.14-7.16-13.86,0-11.26,4.83-19.65,7-20.92a8.5,8.5,0,0,0,.2-17c-2.46-.18-60.63-3.88-88.53,30.25C106.06,46.62,102,68.1,107.22,94.4h-6.41A55.08,55.08,0,0,0,61,187.55h-6a55.07,55.07,0,0,0-7.8,109.59L85.82,473.66a8.51,8.51,0,0,0,8.31,6.68H308.52a8.51,8.51,0,0,0,8.31-6.68l38.55-176.53A55.15,55.15,0,0,0,402.65,242.62ZM242.57,463.34l10.36-165.65H294L273.28,463.34Zm-113.2,0L108.65,297.69h41.07l10.36,165.65Zm27.36-165.65h41.1V463.34H167.09Zm48.1,0h41.09L235.56,463.34H204.83Zm-140,0H101.6l20.72,165.65H101ZM301.68,463.34H280.33l20.72-165.65h36.81Zm46.09-182.65H54.87a38.07,38.07,0,0,1,.2-76.14H184.92a8.5,8.5,0,1,0,0-17H100.81a38.08,38.08,0,0,1,0-76.15H116a8.17,8.17,0,0,0,2.1.27,8.86,8.86,0,0,0,2.09-.26,8.5,8.5,0,0,0,6.15-10.33l-.05-.2s0-.09,0-.14,0-.07,0-.11c-7.12-25.61-5-45.59,6.23-59.38,13.58-16.65,38-22,55.07-23.57a56.72,56.72,0,0,0-3.86,20.41c0,9.66,4.7,19.36,12.9,26.6A48.25,48.25,0,0,0,228.6,76.31c35.25,0,47.57,6.74,51,18.09H227.66a8.5,8.5,0,0,0,0,17h74.18a38.08,38.08,0,0,1,0,76.15,8.5,8.5,0,0,0,0,17h45.74a38.07,38.07,0,0,1,.19,76.14Z"/><path class="cls-1" d="M240.12,230a15.72,15.72,0,1,0,15.71,15.72A15.74,15.74,0,0,0,240.12,230Zm0,24.44a8.72,8.72,0,1,1,8.71-8.72A8.73,8.73,0,0,1,240.12,254.48Z"/><path class="cls-1" d="M73.29,229.1a10.16,10.16,0,1,0-10.16,10.16A10.17,10.17,0,0,0,73.29,229.1Zm-10.16,3.16a3.16,3.16,0,1,1,3.16-3.16A3.15,3.15,0,0,1,63.13,232.26Z"/><path class="cls-1" d="M350.08,218.94a10.16,10.16,0,1,0,10.17,10.16A10.17,10.17,0,0,0,350.08,218.94Zm0,13.32a3.16,3.16,0,1,1,3.17-3.16A3.16,3.16,0,0,1,350.08,232.26Z"/><path class="cls-1" d="M147.18,129a11.28,11.28,0,1,0,11.28,11.28A11.29,11.29,0,0,0,147.18,129Zm0,15.55a4.28,4.28,0,1,1,4.28-4.27A4.28,4.28,0,0,1,147.18,144.51Z"/><path class="cls-1" d="M164.21,57.13a11.28,11.28,0,1,0,11.28,11.28A11.28,11.28,0,0,0,164.21,57.13Zm0,15.55a4.28,4.28,0,1,1,4.28-4.27A4.27,4.27,0,0,1,164.21,72.68Z"/><path class="cls-1" d="M262,142.66a12.39,12.39,0,1,0,12.39,12.39A12.41,12.41,0,0,0,262,142.66Zm0,17.77a5.39,5.39,0,1,1,5.39-5.38A5.39,5.39,0,0,1,262,160.43Z"/><path class="cls-1" d="M134.17,252.91a11.28,11.28,0,1,0,11.27,11.27A11.28,11.28,0,0,0,134.17,252.91Zm0,15.55a4.28,4.28,0,1,1,4.27-4.28A4.28,4.28,0,0,1,134.17,268.46Z"/><path class="cls-1" d="M167.47,220.83a3.5,3.5,0,0,0-4.88.82,9.52,9.52,0,0,1-13.28,2.24,3.5,3.5,0,1,0-4.06,5.7,16.54,16.54,0,0,0,23.05-3.88A3.5,3.5,0,0,0,167.47,220.83Z"/><path class="cls-1" d="M311.52,250.61a3.5,3.5,0,0,0-4.12,5.66,9.53,9.53,0,0,1,2.09,13.3,3.5,3.5,0,0,0,5.66,4.12A16.55,16.55,0,0,0,311.52,250.61Z"/><path class="cls-1" d="M234.81,192.48a3.5,3.5,0,0,0,.34-7,9.53,9.53,0,0,1-8.52-10.43,3.5,3.5,0,0,0-7-.7,16.54,16.54,0,0,0,14.79,18.09A2.17,2.17,0,0,0,234.81,192.48Z"/><path class="cls-1" d="M109,147.56a16.5,16.5,0,0,0-22.35,6.79,3.51,3.51,0,0,0,1.44,4.74,3.44,3.44,0,0,0,1.64.41,3.5,3.5,0,0,0,3.09-1.85,9.52,9.52,0,0,1,12.89-3.92,3.5,3.5,0,1,0,3.29-6.17Z"/><path class="cls-1" d="M183.65,101.62a3.5,3.5,0,1,0-2.22,6.64,9.53,9.53,0,0,1,6,12.06,3.51,3.51,0,0,0,2.21,4.43,3.58,3.58,0,0,0,1.11.18,3.49,3.49,0,0,0,3.32-2.39A16.54,16.54,0,0,0,183.65,101.62Z"/><path class="cls-1" d="M305.32,134.35A9.53,9.53,0,0,1,314,144.67a3.5,3.5,0,0,0,3.18,3.79h.31a3.49,3.49,0,0,0,3.48-3.19,16.53,16.53,0,0,0-15-17.9,3.5,3.5,0,1,0-.61,7Z"/><path class="cls-1" d="M84.56,253.13a16.53,16.53,0,0,0-17.83,15.11,3.5,3.5,0,0,0,3.2,3.77h.3a3.49,3.49,0,0,0,3.48-3.21A9.51,9.51,0,0,1,84,260.11a3.5,3.5,0,0,0,.58-7Z"/></g></g></g></svg>